<svg xmlns="http://www.w3.org/2000/svg" xmlns:xlink="http://www.w3.org/1999/xlink" width="85" height="161" viewBox="0 0 85 161">
  <defs>
    <clipPath id="clip-path">
      <rect id="Rectángulo_34081" data-name="Rectángulo 34081" width="85" height="85" transform="translate(494.667 5270)" fill="#fff" stroke="#707070" stroke-width="1"/>
    </clipPath>
    <clipPath id="clip-path-2">
      <rect id="Rectángulo_34212" data-name="Rectángulo 34212" width="68.778" height="34.389" fill="none"/>
    </clipPath>
  </defs>
  <g id="Grupo_82966" data-name="Grupo 82966" transform="translate(-494.667 -5668)">
    <path id="Rectángulo_34084" data-name="Rectángulo 34084" d="M10,0H75A10,10,0,0,1,85,10V161a0,0,0,0,1,0,0H0a0,0,0,0,1,0,0V10A10,10,0,0,1,10,0Z" transform="translate(494.667 5668)" fill="#ffd947"/>
    <g id="Enmascarar_grupo_83" data-name="Enmascarar grupo 83" transform="translate(0 474)" clip-path="url(#clip-path)">
      <g id="estatua-de-la-libertad" transform="translate(494.667 5270)">
        <g id="Grupo_81107" data-name="Grupo 81107">
          <path id="Trazado_115072" data-name="Trazado 115072" d="M26.137,17.215l-4.412,3.158,4.986,30.132,4.367-8.454Z" fill="#baf39a" stroke="#707070" stroke-width="0.166"/>
          <path id="Trazado_115073" data-name="Trazado 115073" d="M36.258,55.925h9.115L42.814,43.179h-4Z" fill="#9ae59c" stroke="#707070" stroke-width="0.166"/>
          <path id="Trazado_115074" data-name="Trazado 115074" d="M35.452,35.846v5.323a5.323,5.323,0,1,0,10.647,0V35.846Z" fill="#baf39a" stroke="#707070" stroke-width="0.166"/>
          <path id="Trazado_115075" data-name="Trazado 115075" d="M43.437,31.853H38.114a3.992,3.992,0,0,0-3.992,3.992v1.331H47.43V35.846A3.992,3.992,0,0,0,43.437,31.853Z" fill="#9ae59c" stroke="#707070" stroke-width="0.166"/>
          <path id="Trazado_115076" data-name="Trazado 115076" d="M31.078,42.051l-4.922,7.69a2.662,2.662,0,0,0-.082,2.733L29.2,58.093l11.778-1.517Z" fill="#9ae59c" stroke="#707070" stroke-width="0.166"/>
          <path id="Trazado_115077" data-name="Trazado 115077" d="M23.475,22.538a2.662,2.662,0,0,1-2.662-2.662V17.215a2.662,2.662,0,0,1,5.323,0v2.662A2.661,2.661,0,0,1,23.475,22.538Z" fill="#9ae59c" stroke="#707070" stroke-width="0.166"/>
          <g id="Grupo_81105" data-name="Grupo 81105">
            <path id="Trazado_115078" data-name="Trazado 115078" d="M27.468,14.553H19.483a1.331,1.331,0,0,1-1.331-1.331V10.561A1.331,1.331,0,0,1,19.483,9.23h7.985A1.331,1.331,0,0,1,28.8,10.561v2.662A1.331,1.331,0,0,1,27.468,14.553Z" fill="#baf39a" stroke="#707070" stroke-width="0.166"/>
            <path id="Trazado_115079" data-name="Trazado 115079" d="M26.137,6.568a2.664,2.664,0,0,1-3.164,2.616,2.721,2.721,0,0,1-2.157-2.75A7.553,7.553,0,0,1,22.4,2.546a1.326,1.326,0,0,1,2.148-.015A7.407,7.407,0,0,1,26.137,6.568Z" fill="#baf39a" stroke="#707070" stroke-width="0.166"/>
            <path id="Trazado_115080" data-name="Trazado 115080" d="M34.052,46.412,27.5,58.031a2.662,2.662,0,0,0-.045,2.607l3.124,5.982.95,1.331,9.455-11.375Z" fill="#baf39a" stroke="#707070" stroke-width="0.166"/>
          </g>
          <path id="Trazado_115081" data-name="Trazado 115081" d="M48.021,50.706a2.661,2.661,0,0,0-4.212-.287L33.093,62.542l-3.9-7-1.7,2.485a2.662,2.662,0,0,0-.045,2.607l2.729,5.225-2.524,2.86a3.992,3.992,0,0,0-.794,3.9L30,81.722,49.581,53.053Z" fill="#9ae59c" stroke="#707070" stroke-width="0.166"/>
          <path id="Trazado_115082" data-name="Trazado 115082" d="M56.355,67.848,53.619,55.713a4.977,4.977,0,0,0-4.858-3.9L26.137,83.754H54.084l-2.45-14.7Z" fill="#baf39a" stroke="#707070" stroke-width="0.166"/>
          <g id="Grupo_81106" data-name="Grupo 81106">
            <path id="Trazado_115083" data-name="Trazado 115083" d="M66.366,65.881,60.21,60.8a1.331,1.331,0,0,0-1.873.178l-6.7,8.066,1.709,10.244,1.158.96a1.33,1.33,0,0,0,1.873-.178L66.544,67.755a1.331,1.331,0,0,0-.178-1.874Z" fill="#9ae59c" stroke="#707070" stroke-width="0.166"/>
          </g>
          <path id="Trazado_115084" data-name="Trazado 115084" d="M60.611,74.937a2.662,2.662,0,0,1-.357-3.747l.848-1.026a2.662,2.662,0,0,1,4.1,3.39l-.848,1.026a2.662,2.662,0,0,1-3.747.357Z" fill="#baf39a" stroke="#707070" stroke-width="0.166"/>
          <path id="Trazado_115085" data-name="Trazado 115085" d="M22.145,9.23H19.483a1.331,1.331,0,0,0-1.331,1.331v2.662a1.331,1.331,0,0,0,1.331,1.331h2.662Z" fill="#9ae59c" stroke="#707070" stroke-width="0.166"/>
        </g>
        <g id="Grupo_81108" data-name="Grupo 81108">
          <path id="Trazado_115086" data-name="Trazado 115086" d="M46.441,63.926a1.245,1.245,0,0,0-1.539.855L39.578,83.412a1.245,1.245,0,1,0,2.394.684L47.3,65.465A1.245,1.245,0,0,0,46.441,63.926Z" stroke="#707070" stroke-width="0.166"/>
          <path id="Trazado_115087" data-name="Trazado 115087" d="M67.159,64.922,61,59.836a2.576,2.576,0,0,0-3.626.345L56.2,61.6l-1.369-6.159a6.179,6.179,0,0,0-5.382-4.834l-.4-.6a3.88,3.88,0,0,0-2.987-1.731,3.949,3.949,0,0,0-.824.031l-.44-1.961a6.559,6.559,0,0,0,2.541-5.183V38.422h2.747a1.245,1.245,0,0,0,0-2.49H48.675v-.086a5.207,5.207,0,0,0-.93-2.974l1.014-.948a1.245,1.245,0,1,0-1.7-1.819l-1.184,1.107a5.2,5.2,0,0,0-2.436-.6H42.021V27.861a1.245,1.245,0,1,0-2.49,0v2.747H38.114a5.2,5.2,0,0,0-2.436.6L34.494,30.1a1.245,1.245,0,1,0-1.7,1.819l1.014.948a5.207,5.207,0,0,0-.93,2.974v.086H30.953L27.387,15.8h.082a2.579,2.579,0,0,0,2.576-2.576V10.561a2.579,2.579,0,0,0-2.576-2.576h-.353a3.884,3.884,0,0,0,.267-1.416,7.974,7.974,0,0,0-1.54-4.35A13.267,13.267,0,0,0,24.356.365a1.245,1.245,0,0,0-1.761,0,13.267,13.267,0,0,0-1.486,1.853,7.974,7.974,0,0,0-1.54,4.35,3.884,3.884,0,0,0,.267,1.416h-.353a2.579,2.579,0,0,0-2.576,2.576v2.662A2.579,2.579,0,0,0,19.483,15.8h.353a3.884,3.884,0,0,0-.267,1.416v2.662a3.9,3.9,0,0,0,6.524,2.9l3.435,19.391L26.951,46.19,24.165,27.613a1.245,1.245,0,1,0-2.463.369l3.215,21.425a3.9,3.9,0,0,0,.071,3.675l1.936,3.464-.5.856a3.93,3.93,0,0,0-.066,3.827l2.372,4.4-2,2.272a5.254,5.254,0,0,0-1.041,5.122L27.767,79.3l-2.646,3.736a1.245,1.245,0,1,0,2.032,1.439L49.37,53.109A3.706,3.706,0,0,1,52.4,55.983l1.789,8.052-1.775,2.149-1.1-6.589A1.245,1.245,0,0,0,48.863,60l3.992,23.954A1.245,1.245,0,0,0,54.082,85a1.262,1.262,0,0,0,.206-.017,1.245,1.245,0,0,0,1.023-1.433l-.3-1.779a2.551,2.551,0,0,0,2.318-.911l3.575-4.328a3.873,3.873,0,0,0,1.391.26c.125,0,.251-.006.377-.018a3.881,3.881,0,0,0,2.642-1.4l.848-1.026a3.9,3.9,0,0,0,.305-4.548L67.5,68.548A2.579,2.579,0,0,0,67.159,64.922ZM23.475,3.177a6.4,6.4,0,0,1,1.417,3.392,1.416,1.416,0,0,1-2.833,0,6.4,6.4,0,0,1,1.416-3.392Zm1.417,16.7a1.416,1.416,0,0,1-2.833,0V17.215a1.416,1.416,0,0,1,2.833,0Zm-5.409-6.568a.086.086,0,0,1-.086-.086V10.561a.086.086,0,0,1,.086-.086h7.985a.086.086,0,0,1,.086.086v2.662a.086.086,0,0,1-.086.086H19.483ZM44.854,41.169a4.078,4.078,0,1,1-8.156,0V38.422h8.156v2.747ZM42.959,49.5c-.028.03-.057.059-.084.09l-2.959,3.353-1.438-2.136.612-3.3a6.55,6.55,0,0,0,3.419-.014ZM35.367,35.846A2.75,2.75,0,0,1,38.114,33.1h5.323a2.75,2.75,0,0,1,2.747,2.747v.086H35.367v-.086ZM31.46,38.422h2.747v2.747a6.56,6.56,0,0,0,2.563,5.2l-.277,1.494-4.382-6.508a1.233,1.233,0,0,0-.245-.265l-.473-2.673c.023,0,.045,0,.067,0ZM28.548,60.047a1.424,1.424,0,0,1,.024-1.388L32.3,52.29a1.245,1.245,0,0,0-2.15-1.257l-1.766,3.019-1.221-2.184a1.415,1.415,0,0,1,.043-1.455l3.9-6.093,7.109,10.558-7.729,8.759Zm1.009,16.724-1.513-4.538a2.756,2.756,0,0,1,.546-2.686l16.151-18.3a1.417,1.417,0,0,1,2.241.151l.267.4Zm34.688-4.01L63.4,73.787a1.416,1.416,0,1,1-2.184-1.8l.848-1.026a1.416,1.416,0,1,1,2.184,1.8Zm1.338-5.8L64.55,68.214a3.911,3.911,0,0,0-4.408,1.157L59.294,70.4a3.911,3.911,0,0,0-.3,4.547l-3.576,4.329a.082.082,0,0,1-.058.031.083.083,0,0,1-.063-.019l-.8-.663L52.96,69.438l6.336-7.67a.086.086,0,0,1,.121-.011l6.156,5.085a.086.086,0,0,1,.011.121Z" stroke="#707070" stroke-width="0.166"/>
        </g>
      </g>
    </g>
    <g id="Grupo_82891" data-name="Grupo 82891" transform="translate(502.667 5685)">
      <rect id="Rectángulo_34205" data-name="Rectángulo 34205" width="68.778" height="34.389" transform="translate(0 0)" fill="#002173"/>
      <g id="Grupo_82890" data-name="Grupo 82890" transform="translate(0 0)">
        <g id="Grupo_82889" data-name="Grupo 82889" clip-path="url(#clip-path-2)">
          <g id="Grupo_82888" data-name="Grupo 82888" transform="translate(-8.16 -6.387)">
            <g id="Grupo_82886" data-name="Grupo 82886">
              <g id="Grupo_82883" data-name="Grupo 82883">
                <rect id="Rectángulo_34206" data-name="Rectángulo 34206" width="91.704" height="6.878" transform="translate(3.076) rotate(26.565)" fill="#fff"/>
                <g id="Grupo_82882" data-name="Grupo 82882" transform="translate(0.513 3.076)">
                  <rect id="Rectángulo_34207" data-name="Rectángulo 34207" width="2.293" height="45.852" transform="translate(0 2.051) rotate(-63.435)" fill="#c61018"/>
                  <rect id="Rectángulo_34208" data-name="Rectángulo 34208" width="2.293" height="45.852" transform="translate(42.037 20.506) rotate(-63.435)" fill="#c61018"/>
                </g>
              </g>
              <g id="Grupo_82885" data-name="Grupo 82885">
                <rect id="Rectángulo_34209" data-name="Rectángulo 34209" width="91.704" height="6.878" transform="translate(0 41.011) rotate(-26.565)" fill="#fff"/>
                <g id="Grupo_82884" data-name="Grupo 82884" transform="translate(1.538 1.025)">
                  <rect id="Rectángulo_34210" data-name="Rectángulo 34210" width="45.852" height="2.293" transform="translate(0 43.062) rotate(-26.565)" fill="#c61018"/>
                  <rect id="Rectángulo_34211" data-name="Rectángulo 34211" width="45.852" height="2.293" transform="translate(39.986 20.506) rotate(-26.565)" fill="#c61018"/>
                </g>
              </g>
            </g>
            <g id="Grupo_82887" data-name="Grupo 82887" transform="translate(2.429 0.655)">
              <path id="Trazado_115815" data-name="Trazado 115815" d="M1990.241,1317.193h-34.389V1300h-11.463v17.195H1910v11.463h34.389v17.195h11.463v-17.195h34.389Z" transform="translate(-1910 -1299.998)" fill="#fff"/>
              <path id="Trazado_115816" data-name="Trazado 115816" d="M1990.241,1319.486H1953.56V1300h-6.878v19.487H1910v6.878h36.682v19.487h6.878v-19.487h36.682Z" transform="translate(-1910 -1299.998)" fill="#c61018"/>
            </g>
          </g>
        </g>
      </g>
    </g>
  </g>
</svg>
