<svg xmlns="http://www.w3.org/2000/svg" width="300" height="54" viewBox="0 0 300 54">
  <g id="Grupo_82686" data-name="Grupo 82686" transform="translate(8771 9881)">
    <g id="Rectángulo_34150" data-name="Rectángulo 34150" transform="translate(-8771 -9881)" fill="#fff" stroke="#ffbfc1" stroke-width="2">
      <rect width="300" height="54" rx="27" stroke="none"/>
      <rect x="1" y="1" width="298" height="52" rx="26" fill="none"/>
    </g>
    <path id="Trazado_115823" data-name="Trazado 115823" d="M7.625,12.352H3.266L2.453,17H.164L2.141,5.625h7.2l-.336,1.9H4.1l-.516,2.938H7.961ZM13.227,17a2.281,2.281,0,0,1-.086-.766,2.863,2.863,0,0,1-2.156.922,2.594,2.594,0,0,1-1.84-.723,2.186,2.186,0,0,1-.684-1.746,2.527,2.527,0,0,1,1.16-2.121,5.266,5.266,0,0,1,2.965-.738l1.031.016.109-.508a1.764,1.764,0,0,0,.023-.492.846.846,0,0,0-.277-.574.955.955,0,0,0-.629-.215,1.345,1.345,0,0,0-.875.254,1.231,1.231,0,0,0-.461.777L9.3,11.094A2.457,2.457,0,0,1,10.41,9.129a4.312,4.312,0,0,1,2.613-.738,3.117,3.117,0,0,1,2.25.855,2.5,2.5,0,0,1,.68,2.121L15.3,15.414l-.039.5a2.412,2.412,0,0,0,.133.938L15.391,17Zm-1.7-1.555a2.017,2.017,0,0,0,1.664-.828l.273-1.461-.766-.008a2.139,2.139,0,0,0-1.758.742,1.292,1.292,0,0,0-.242.633.75.75,0,0,0,.176.668A.891.891,0,0,0,11.531,15.445ZM24.859,12.8A6.061,6.061,0,0,1,23.641,16a3.033,3.033,0,0,1-2.547,1.164,2.357,2.357,0,0,1-2.031-1.078l-.32.914H16.734L18.813,5h2.211l-.852,4.32a2.634,2.634,0,0,1,2.063-.93,2.385,2.385,0,0,1,1.926.879,3.89,3.89,0,0,1,.746,2.387A9.133,9.133,0,0,1,24.859,12.8Zm-2.187-.165a6.554,6.554,0,0,0,.047-1.034q-.086-1.364-1.125-1.387a1.833,1.833,0,0,0-1.617.885l-.609,3.37a1.258,1.258,0,0,0,1.266.878q1.625.047,1.992-2.367ZM27.875,17H25.656l1.469-8.453h2.219ZM27.383,6.4a1.1,1.1,0,0,1,.344-.867,1.323,1.323,0,0,1,1.734-.039,1.1,1.1,0,0,1,.383.828,1.132,1.132,0,0,1-.324.844,1.215,1.215,0,0,1-.887.375,1.235,1.235,0,0,1-.863-.3A1.091,1.091,0,0,1,27.383,6.4Zm7.2,1.992a3.39,3.39,0,0,1,1.926.574A3.234,3.234,0,0,1,37.691,10.5a4.762,4.762,0,0,1,.27,2.176,5.143,5.143,0,0,1-1.4,3.262,3.96,3.96,0,0,1-3.02,1.215,3.38,3.38,0,0,1-1.906-.566,3.222,3.222,0,0,1-1.187-1.527,4.657,4.657,0,0,1-.273-2.156,5.3,5.3,0,0,1,1.422-3.328A3.878,3.878,0,0,1,34.578,8.391Zm-2.227,5.315a1.95,1.95,0,0,0,.352,1.182,1.168,1.168,0,0,0,.945.449,1.712,1.712,0,0,0,1.594-.932,4.647,4.647,0,0,0,.539-2.531,2.122,2.122,0,0,0-.363-1.2,1.149,1.149,0,0,0-.949-.464,1.715,1.715,0,0,0-1.574.924A4.6,4.6,0,0,0,32.352,13.706ZM44.867,17H42.648l1.469-8.453h2.219ZM44.375,6.4a1.1,1.1,0,0,1,.344-.867,1.323,1.323,0,0,1,1.734-.039,1.1,1.1,0,0,1,.383.828,1.132,1.132,0,0,1-.324.844,1.215,1.215,0,0,1-.887.375,1.235,1.235,0,0,1-.863-.3A1.091,1.091,0,0,1,44.375,6.4Zm7.258,8.219q.125-.625-.867-.906l-.711-.18q-2.523-.7-2.453-2.453A2.428,2.428,0,0,1,48.66,9.129a3.942,3.942,0,0,1,2.457-.738,3.536,3.536,0,0,1,2.313.758,2.5,2.5,0,0,1,.9,1.977l-2.187-.008a.963.963,0,0,0-1.078-1.1,1.552,1.552,0,0,0-.895.258,1.061,1.061,0,0,0-.465.7q-.117.625.945.883l.313.07a6.285,6.285,0,0,1,1.648.59,2.488,2.488,0,0,1,.879.824,2.04,2.04,0,0,1,.285,1.18,2.251,2.251,0,0,1-.52,1.406,3.18,3.18,0,0,1-1.359.93,4.736,4.736,0,0,1-1.816.3,3.568,3.568,0,0,1-2.344-.809,2.607,2.607,0,0,1-.953-2.051l2.078.016a1.142,1.142,0,0,0,1.3,1.227,1.845,1.845,0,0,0,1-.25A.987.987,0,0,0,51.633,14.617Zm10.656-.406L64.7,8.547H67.07L62.984,17H60.875L59.43,8.547h2.234Zm8.383,2.945a3.677,3.677,0,0,1-1.965-.543,3.292,3.292,0,0,1-1.277-1.469,4.093,4.093,0,0,1-.328-2.059l.023-.312a5.465,5.465,0,0,1,.719-2.266,4.341,4.341,0,0,1,1.547-1.59,3.827,3.827,0,0,1,2.094-.527,2.924,2.924,0,0,1,2.473,1.2,4.117,4.117,0,0,1,.637,2.962l-.125.962h-5.18a1.814,1.814,0,0,0,.4,1.313,1.521,1.521,0,0,0,1.172.508,2.7,2.7,0,0,0,2.109-.937l1.008,1.25A3.135,3.135,0,0,1,72.6,16.77,4.5,4.5,0,0,1,70.672,17.156Zm.7-6.945a1.565,1.565,0,0,0-1.082.383,3.363,3.363,0,0,0-.848,1.383h3.031l.047-.2a2.071,2.071,0,0,0,.008-.594,1.134,1.134,0,0,0-.383-.707A1.2,1.2,0,0,0,71.375,10.211Zm9.539.453a4.548,4.548,0,0,0-.742-.078,2.136,2.136,0,0,0-1.867.883L77.328,17h-2.2l1.469-8.453,2.07-.008-.2,1.031a2.325,2.325,0,0,1,1.969-1.2,3.214,3.214,0,0,1,.766.109Zm3.539,3.117,2.414-5.234H89.32l-4.945,9.727a4.231,4.231,0,0,1-1.246,1.641,2.723,2.723,0,0,1-1.652.523,5.035,5.035,0,0,1-1.062-.164l.164-1.719.3.016a1.651,1.651,0,0,0,1.578-.789l.484-.9L81.563,8.547h2.281ZM93.273,17l1.18-6.8H93.234l.289-1.648,1.219-.008.109-.844a3.332,3.332,0,0,1,1.1-2.121,3.334,3.334,0,0,1,2.289-.754,7.33,7.33,0,0,1,1.2.163l-.2,1.751a2.732,2.732,0,0,0-.648-.094,1.615,1.615,0,0,0-1,.3,1.355,1.355,0,0,0-.52.918l-.117.69h1.633L98.3,10.2H96.672L95.492,17Zm10.836-6.336a4.548,4.548,0,0,0-.742-.078,2.136,2.136,0,0,0-1.867.883L100.523,17h-2.2l1.469-8.453,2.07-.008-.2,1.031a2.325,2.325,0,0,1,1.969-1.2,3.214,3.214,0,0,1,.766.109ZM106.391,17h-2.219l1.469-8.453h2.219ZM105.9,6.4a1.1,1.1,0,0,1,.344-.867,1.323,1.323,0,0,1,1.734-.039,1.1,1.1,0,0,1,.383.828,1.132,1.132,0,0,1-.324.844,1.215,1.215,0,0,1-.887.375,1.235,1.235,0,0,1-.863-.3A1.091,1.091,0,0,1,105.9,6.4Zm6.375,10.758a3.677,3.677,0,0,1-1.965-.543,3.292,3.292,0,0,1-1.277-1.469,4.093,4.093,0,0,1-.328-2.059l.023-.312a5.465,5.465,0,0,1,.719-2.266,4.341,4.341,0,0,1,1.547-1.59,3.827,3.827,0,0,1,2.094-.527,2.924,2.924,0,0,1,2.473,1.2,4.117,4.117,0,0,1,.637,2.962l-.125.962h-5.18a1.814,1.814,0,0,0,.4,1.313,1.521,1.521,0,0,0,1.172.508,2.7,2.7,0,0,0,2.109-.937l1.008,1.25A3.135,3.135,0,0,1,114.2,16.77,4.5,4.5,0,0,1,112.273,17.156Zm.7-6.945a1.565,1.565,0,0,0-1.082.383,3.363,3.363,0,0,0-.848,1.383h3.031l.047-.2a2.071,2.071,0,0,0,.008-.594,1.134,1.134,0,0,0-.383-.707A1.2,1.2,0,0,0,112.977,10.211Zm7.234-1.672-.187,1a3.042,3.042,0,0,1,2.461-1.148,2.028,2.028,0,0,1,1.766.875,3.526,3.526,0,0,1,.414,2.359L123.773,17h-2.2l.906-5.4a2.528,2.528,0,0,0,.016-.555.9.9,0,0,0-1-.82,1.9,1.9,0,0,0-1.555.8L118.883,17h-2.2l1.469-8.453Zm9.484-.156a2.4,2.4,0,0,1,1.906.945L132.43,5h2.211l-2.078,12h-1.969l.125-.906a2.736,2.736,0,0,1-2.2,1.07,2.433,2.433,0,0,1-1.383-.414,2.607,2.607,0,0,1-.918-1.168,4.7,4.7,0,0,1-.355-1.7,6.4,6.4,0,0,1,.023-.953l.047-.352a6.767,6.767,0,0,1,.723-2.281,3.766,3.766,0,0,1,1.313-1.461A3.094,3.094,0,0,1,129.7,8.383Zm-1.6,4.547a6.326,6.326,0,0,0-.039,1q.078,1.375,1.109,1.4a1.885,1.885,0,0,0,1.617-.875l.6-3.359a1.248,1.248,0,0,0-1.219-.875,1.606,1.606,0,0,0-1.34.621A4.176,4.176,0,0,0,128.094,12.93ZM136.648,17H134.43l2.086-12h2.211Zm5.453-3.219,2.414-5.234h2.453l-4.945,9.727a4.231,4.231,0,0,1-1.246,1.641,2.723,2.723,0,0,1-1.652.523,5.035,5.035,0,0,1-1.062-.164l.164-1.719.3.016a1.651,1.651,0,0,0,1.578-.789l.484-.9-1.383-8.336h2.281Zm5.82.891a1.22,1.22,0,0,1,.895.324,1.111,1.111,0,0,1,.371.855,1.151,1.151,0,0,1-.344.879,1.323,1.323,0,0,1-1.766.051,1.149,1.149,0,0,1-.375-.852,1.161,1.161,0,0,1,.336-.883A1.238,1.238,0,0,1,147.922,14.672Z" transform="translate(-8746 -9867)" fill="#ff5f65"/>
    <g id="Grupo_82659" data-name="Grupo 82659" transform="translate(-8519 -9869)">
      <ellipse id="Elipse_4711" data-name="Elipse 4711" cx="14.5" cy="15" rx="14.5" ry="15" fill="#ff5f65"/>
      <g id="herramienta-de-audio-con-altavoz" transform="translate(5.515 8.205)">
        <path id="Trazado_115694" data-name="Trazado 115694" d="M8.627,22.326a.82.82,0,0,1-.45.74.751.751,0,0,1-.333.078.763.763,0,0,1-.5-.188l-4.281-3.7H.783A.8.8,0,0,1,0,18.435V15.178a.8.8,0,0,1,.783-.818h2.28l4.281-3.7a.755.755,0,0,1,.833-.11.821.821,0,0,1,.45.74V22.326Zm3.009-1.277-.056,0a.766.766,0,0,1-.554-.239l-.1-.11a.844.844,0,0,1-.076-1.065,4.919,4.919,0,0,0-.12-5.825.843.843,0,0,1,.054-1.093l.1-.109a.749.749,0,0,1,.593-.238.773.773,0,0,1,.567.3,6.774,6.774,0,0,1,.163,8.053A.776.776,0,0,1,11.637,21.049Zm3.238,2.526a.772.772,0,0,1-.566.289h-.033a.766.766,0,0,1-.554-.239l-.1-.107a.844.844,0,0,1-.046-1.1,9,9,0,0,0-.138-11.382.844.844,0,0,1,.032-1.119l.1-.107a.746.746,0,0,1,.577-.24.77.77,0,0,1,.563.274,10.847,10.847,0,0,1,.165,13.736Z" transform="translate(0 -9.565)" fill="#fff"/>
      </g>
    </g>
    <rect id="Rectángulo_34151" data-name="Rectángulo 34151" width="216" height="3" rx="1.5" transform="translate(-8746 -9840)" fill="#e1e8ff"/>
    <rect id="Rectángulo_34152" data-name="Rectángulo 34152" width="51" height="3" rx="1.5" transform="translate(-8746 -9840)" fill="#6b8dff"/>
    <circle id="Elipse_4776" data-name="Elipse 4776" cx="2.5" cy="2.5" r="2.5" transform="translate(-8698 -9841)" fill="#6b8dff"/>
  </g>
</svg>
