<svg xmlns="http://www.w3.org/2000/svg" xmlns:xlink="http://www.w3.org/1999/xlink" width="504.19" height="106" viewBox="0 0 504.19 106">
  <defs>
    <clipPath id="clip-path">
      <path id="Trazado_113602" data-name="Trazado 113602" d="M235.776,334.792v-.1H184.709v.01a5.764,5.764,0,0,0-5.54,5.807,5.605,5.605,0,0,0,5.657,5.683c.392,0,.758.016,1.2.013h49.64c-2.606-.54-3.642-2.885-3.642-5.7C232.026,337.656,233.118,335.291,235.776,334.792Z" fill="none"/>
    </clipPath>
    <clipPath id="clip-path-2">
      <path id="Trazado_113613" data-name="Trazado 113613" d="M260.714,350.553v-.1H209.646v.009a5.766,5.766,0,0,0-5.54,5.808,5.6,5.6,0,0,0,5.657,5.68c.391,0,.758.019,1.2.016H260.6c-2.605-.541-3.641-2.885-3.641-5.7C256.963,353.417,258.056,351.05,260.714,350.553Z" fill="none"/>
    </clipPath>
  </defs>
  <g id="Grupo_82953" data-name="Grupo 82953" transform="translate(-285.405 -2416)">
    <rect id="Rectángulo_33794" data-name="Rectángulo 33794" width="458" height="106" rx="20" transform="translate(331.595 2416)" fill="#6b8dff"/>
    <path id="Trazado_115820" data-name="Trazado 115820" d="M10.063,17H8.555L2.828,8.234V17H1.32V5.625H2.828l5.742,8.8v-8.8h1.492Zm5.945.156a3.693,3.693,0,0,1-2.8-1.129,4.19,4.19,0,0,1-1.078-3.02v-.266a5.073,5.073,0,0,1,.48-2.246,3.748,3.748,0,0,1,1.344-1.547,3.378,3.378,0,0,1,1.871-.559,3.166,3.166,0,0,1,2.563,1.086,4.7,4.7,0,0,1,.914,3.109v.6H13.578a3,3,0,0,0,.73,2.02,2.3,2.3,0,0,0,1.777.77,2.517,2.517,0,0,0,1.3-.312,3.259,3.259,0,0,0,.93-.828l.883.688A3.55,3.55,0,0,1,16.008,17.156Zm-.18-7.578a1.928,1.928,0,0,0-1.469.637A3.1,3.1,0,0,0,13.625,12h4.234v-.109a2.753,2.753,0,0,0-.594-1.707A1.815,1.815,0,0,0,15.828,9.578Zm8.539,6.4a2.082,2.082,0,0,0,1.352-.469,1.649,1.649,0,0,0,.641-1.172h1.367a2.621,2.621,0,0,1-.5,1.383A3.293,3.293,0,0,1,26,16.766a3.55,3.55,0,0,1-1.629.391A3.482,3.482,0,0,1,21.621,16a4.59,4.59,0,0,1-1.02-3.152v-.242a5.089,5.089,0,0,1,.453-2.2,3.451,3.451,0,0,1,1.3-1.492,3.7,3.7,0,0,1,2-.531,3.39,3.39,0,0,1,2.363.852,3.043,3.043,0,0,1,1,2.211H26.359a1.992,1.992,0,0,0-.621-1.348,1.932,1.932,0,0,0-1.379-.527,2.023,2.023,0,0,0-1.707.793,3.724,3.724,0,0,0-.605,2.293v.273a3.65,3.65,0,0,0,.6,2.25A2.033,2.033,0,0,0,24.367,15.977Zm8.492,1.18a3.693,3.693,0,0,1-2.8-1.129,4.19,4.19,0,0,1-1.078-3.02v-.266a5.073,5.073,0,0,1,.48-2.246,3.748,3.748,0,0,1,1.344-1.547,3.378,3.378,0,0,1,1.871-.559,3.166,3.166,0,0,1,2.563,1.086,4.7,4.7,0,0,1,.914,3.109v.6H30.43a3,3,0,0,0,.73,2.02,2.3,2.3,0,0,0,1.777.77,2.517,2.517,0,0,0,1.3-.312,3.259,3.259,0,0,0,.93-.828l.883.688A3.55,3.55,0,0,1,32.859,17.156Zm-.18-7.578a1.928,1.928,0,0,0-1.469.637A3.1,3.1,0,0,0,30.477,12h4.234v-.109a2.753,2.753,0,0,0-.594-1.707A1.815,1.815,0,0,0,32.68,9.578Zm10.07,5.18a1.064,1.064,0,0,0-.441-.91,4.249,4.249,0,0,0-1.539-.559,7.277,7.277,0,0,1-1.742-.562,2.479,2.479,0,0,1-.953-.781,1.869,1.869,0,0,1-.309-1.078,2.193,2.193,0,0,1,.879-1.758,3.432,3.432,0,0,1,2.246-.719,3.532,3.532,0,0,1,2.332.742,2.357,2.357,0,0,1,.895,1.9H42.664a1.3,1.3,0,0,0-.5-1.023,1.888,1.888,0,0,0-1.27-.43,1.976,1.976,0,0,0-1.234.344,1.082,1.082,0,0,0-.445.9.877.877,0,0,0,.414.789,5.1,5.1,0,0,0,1.5.508,7.8,7.8,0,0,1,1.754.578,2.558,2.558,0,0,1,1,.809,1.988,1.988,0,0,1,.324,1.152,2.163,2.163,0,0,1-.906,1.816,3.8,3.8,0,0,1-2.352.684,4.257,4.257,0,0,1-1.8-.359,2.922,2.922,0,0,1-1.223-1,2.42,2.42,0,0,1-.441-1.395h1.445a1.5,1.5,0,0,0,.582,1.152,2.258,2.258,0,0,0,1.434.426,2.331,2.331,0,0,0,1.316-.332A1.02,1.02,0,0,0,42.75,14.758ZM47.648,17H46.2V8.547h1.445ZM46.086,6.3a.863.863,0,0,1,.215-.594.807.807,0,0,1,.637-.242.819.819,0,0,1,.641.242A.854.854,0,0,1,47.8,6.3a.826.826,0,0,1-.219.586.834.834,0,0,1-.641.234.821.821,0,0,1-.637-.234A.834.834,0,0,1,46.086,6.3Zm5.836.2V8.547H53.5V9.664H51.922v5.249a1.173,1.173,0,0,0,.211.763.888.888,0,0,0,.719.254,3.5,3.5,0,0,0,.688-.094V17a4.215,4.215,0,0,1-1.109.155,1.8,1.8,0,0,1-1.461-.586,2.517,2.517,0,0,1-.492-1.664V9.664H48.938V8.547h1.539V6.5Zm2.727,6.2a4.993,4.993,0,0,1,.488-2.234A3.643,3.643,0,0,1,56.5,8.93a3.7,3.7,0,0,1,1.988-.539,3.565,3.565,0,0,1,2.793,1.2,4.6,4.6,0,0,1,1.066,3.18v.1a5.036,5.036,0,0,1-.473,2.215,3.589,3.589,0,0,1-1.352,1.527,3.743,3.743,0,0,1-2.02.547,3.556,3.556,0,0,1-2.785-1.2A4.575,4.575,0,0,1,54.648,12.8Zm1.453.172a3.616,3.616,0,0,0,.652,2.258,2.211,2.211,0,0,0,3.5-.012A3.955,3.955,0,0,0,60.9,12.7a3.61,3.61,0,0,0-.66-2.254,2.1,2.1,0,0,0-1.754-.863,2.075,2.075,0,0,0-1.727.852A3.925,3.925,0,0,0,56.1,12.867Zm17.234,3.3a3.07,3.07,0,0,1-2.477.992,2.628,2.628,0,0,1-2.059-.785,3.4,3.4,0,0,1-.715-2.324v-5.5h1.445v5.461q0,1.922,1.563,1.922A2.163,2.163,0,0,0,73.3,14.7V8.547h1.445V17H73.367ZM78.3,8.547l.047,1.063a3.08,3.08,0,0,1,2.531-1.219q2.68,0,2.7,3.023V17H82.141V11.406a1.946,1.946,0,0,0-.418-1.352,1.675,1.675,0,0,0-1.277-.437,2.086,2.086,0,0,0-1.234.375,2.546,2.546,0,0,0-.828.984V17H76.938V8.547ZM91.3,17H89.852V5H91.3Zm3.883,0H93.734V8.547H95.18ZM93.617,6.3a.863.863,0,0,1,.215-.594.807.807,0,0,1,.637-.242.819.819,0,0,1,.641.242.854.854,0,0,1,.219.594.826.826,0,0,1-.219.586.834.834,0,0,1-.641.234.821.821,0,0,1-.637-.234A.834.834,0,0,1,93.617,6.3Zm11.031,6.563a5.026,5.026,0,0,1-.891,3.113,2.846,2.846,0,0,1-2.391,1.176,2.947,2.947,0,0,1-2.477-1.133L98.82,17H97.492V5h1.445V9.477a2.93,2.93,0,0,1,2.414-1.086,2.863,2.863,0,0,1,2.418,1.164,5.177,5.177,0,0,1,.879,3.188ZM103.2,12.7a3.906,3.906,0,0,0-.57-2.281,1.888,1.888,0,0,0-1.641-.8,2.122,2.122,0,0,0-2.055,1.328V14.6a2.181,2.181,0,0,0,2.07,1.328,1.878,1.878,0,0,0,1.617-.8A4.153,4.153,0,0,0,103.2,12.7Zm7.352-2.859a4.331,4.331,0,0,0-.711-.055A1.9,1.9,0,0,0,107.914,11v6h-1.445V8.547h1.406l.023.977a2.251,2.251,0,0,1,2.016-1.133,1.477,1.477,0,0,1,.641.109Zm.789,2.852a4.993,4.993,0,0,1,.488-2.234,3.643,3.643,0,0,1,1.359-1.531,3.7,3.7,0,0,1,1.988-.539,3.565,3.565,0,0,1,2.793,1.2,4.6,4.6,0,0,1,1.066,3.18v.1a5.036,5.036,0,0,1-.473,2.215,3.589,3.589,0,0,1-1.352,1.527,3.743,3.743,0,0,1-2.02.547,3.556,3.556,0,0,1-2.785-1.2,4.575,4.575,0,0,1-1.066-3.164Zm1.453.172a3.616,3.616,0,0,0,.652,2.258,2.211,2.211,0,0,0,3.5-.012,3.955,3.955,0,0,0,.648-2.418,3.61,3.61,0,0,0-.66-2.254,2.1,2.1,0,0,0-1.754-.863,2.075,2.075,0,0,0-1.727.852A3.925,3.925,0,0,0,112.8,12.867Zm14.781,2.016,1.969-6.336h1.547L127.7,18.3q-.789,2.109-2.508,2.109l-.273-.023-.539-.1V19.117l.391.031a1.923,1.923,0,0,0,1.145-.3,2.149,2.149,0,0,0,.676-1.086l.32-.859-3.016-8.359h1.578Zm13.984,1.281a3.07,3.07,0,0,1-2.477.992,2.628,2.628,0,0,1-2.059-.785,3.4,3.4,0,0,1-.715-2.324v-5.5h1.445v5.461q0,1.922,1.563,1.922a2.163,2.163,0,0,0,2.2-1.234V8.547h1.445V17h-1.375Zm4.969-7.617.047,1.063a3.08,3.08,0,0,1,2.531-1.219q2.68,0,2.7,3.023V17h-1.445V11.406a1.946,1.946,0,0,0-.418-1.352,1.675,1.675,0,0,0-1.277-.437,2.086,2.086,0,0,0-1.234.375,2.546,2.546,0,0,0-.828.984V17h-1.445V8.547ZM159.211,17a3.036,3.036,0,0,1-.2-.891,3.225,3.225,0,0,1-2.406,1.047,2.984,2.984,0,0,1-2.051-.707,2.287,2.287,0,0,1-.8-1.793,2.39,2.39,0,0,1,1-2.051,4.733,4.733,0,0,1,2.824-.73h1.406v-.664A1.623,1.623,0,0,0,158.531,10a1.821,1.821,0,0,0-1.336-.449,2.107,2.107,0,0,0-1.3.391,1.151,1.151,0,0,0-.523.945h-1.453a2,2,0,0,1,.449-1.223,3.066,3.066,0,0,1,1.219-.934,4.1,4.1,0,0,1,1.691-.344,3.342,3.342,0,0,1,2.289.73,2.635,2.635,0,0,1,.859,2.012v3.891a4.757,4.757,0,0,0,.3,1.852V17Zm-2.4-1.1a2.54,2.54,0,0,0,1.289-.352,2.127,2.127,0,0,0,.883-.914V12.9h-1.133q-2.656,0-2.656,1.555a1.316,1.316,0,0,0,.453,1.063A1.742,1.742,0,0,0,156.813,15.9Zm10.8-1.141a1.064,1.064,0,0,0-.441-.91,4.249,4.249,0,0,0-1.539-.559,7.277,7.277,0,0,1-1.742-.562,2.479,2.479,0,0,1-.953-.781,1.869,1.869,0,0,1-.309-1.078,2.193,2.193,0,0,1,.879-1.758,3.432,3.432,0,0,1,2.246-.719,3.532,3.532,0,0,1,2.332.742,2.357,2.357,0,0,1,.895,1.9h-1.453a1.3,1.3,0,0,0-.5-1.023,1.888,1.888,0,0,0-1.27-.43,1.976,1.976,0,0,0-1.234.344,1.082,1.082,0,0,0-.445.9.877.877,0,0,0,.414.789,5.1,5.1,0,0,0,1.5.508,7.8,7.8,0,0,1,1.754.578,2.558,2.558,0,0,1,1,.809,1.988,1.988,0,0,1,.324,1.152,2.163,2.163,0,0,1-.906,1.816,3.8,3.8,0,0,1-2.352.684,4.257,4.257,0,0,1-1.8-.359,2.922,2.922,0,0,1-1.223-1,2.42,2.42,0,0,1-.441-1.395h1.445a1.5,1.5,0,0,0,.582,1.152,2.258,2.258,0,0,0,1.434.426,2.331,2.331,0,0,0,1.316-.332A1.02,1.02,0,0,0,167.617,14.758Zm7.234-2.375a12.079,12.079,0,0,1,.473-3.391,9.85,9.85,0,0,1,1.41-2.953,6,6,0,0,1,1.945-1.875l.3.953a6.222,6.222,0,0,0-1.871,2.672,11.583,11.583,0,0,0-.8,4.023l-.008.664a11.643,11.643,0,0,0,1.1,5.234,6.252,6.252,0,0,0,1.578,2.078l-.3.883a6.192,6.192,0,0,1-1.984-1.937A10.859,10.859,0,0,1,174.852,12.383ZM185.594,17a3.036,3.036,0,0,1-.2-.891,3.225,3.225,0,0,1-2.406,1.047,2.984,2.984,0,0,1-2.051-.707,2.287,2.287,0,0,1-.8-1.793,2.39,2.39,0,0,1,1-2.051,4.733,4.733,0,0,1,2.824-.73h1.406v-.664A1.623,1.623,0,0,0,184.914,10a1.821,1.821,0,0,0-1.336-.449,2.107,2.107,0,0,0-1.3.391,1.151,1.151,0,0,0-.523.945H180.3a2,2,0,0,1,.449-1.223,3.066,3.066,0,0,1,1.219-.934,4.1,4.1,0,0,1,1.691-.344,3.342,3.342,0,0,1,2.289.73,2.635,2.635,0,0,1,.859,2.012v3.891a4.757,4.757,0,0,0,.3,1.852V17Zm-2.4-1.1a2.54,2.54,0,0,0,1.289-.352,2.127,2.127,0,0,0,.883-.914V12.9h-1.133q-2.656,0-2.656,1.555a1.316,1.316,0,0,0,.453,1.063A1.742,1.742,0,0,0,183.2,15.9Zm7.453,1.1H189.2V5h1.445Zm1.969-4.3a4.968,4.968,0,0,1,.914-3.145,3.151,3.151,0,0,1,4.836-.074l.07-.937h1.32V16.8a3.439,3.439,0,0,1-.973,2.586,3.589,3.589,0,0,1-2.613.945,4.348,4.348,0,0,1-1.789-.391,3.08,3.08,0,0,1-1.336-1.07L193.8,18a2.826,2.826,0,0,0,2.273,1.148,2.214,2.214,0,0,0,1.645-.594,2.269,2.269,0,0,0,.59-1.672v-.727a2.971,2.971,0,0,1-2.367,1,2.887,2.887,0,0,1-2.4-1.2A5.224,5.224,0,0,1,192.617,12.7Zm1.453.164a3.79,3.79,0,0,0,.586,2.246,1.9,1.9,0,0,0,1.641.816,2.117,2.117,0,0,0,2.008-1.242V10.828a2.142,2.142,0,0,0-1.992-1.211,1.921,1.921,0,0,0-1.648.82A4.128,4.128,0,0,0,194.07,12.867Zm13.086,3.3a3.07,3.07,0,0,1-2.477.992,2.628,2.628,0,0,1-2.059-.785,3.4,3.4,0,0,1-.715-2.324v-5.5h1.445v5.461q0,1.922,1.563,1.922a2.163,2.163,0,0,0,2.2-1.234V8.547h1.445V17h-1.375Zm4.969-7.617.047,1.063A3.08,3.08,0,0,1,214.7,8.391q2.68,0,2.7,3.023V17h-1.445V11.406a1.946,1.946,0,0,0-.418-1.352,1.675,1.675,0,0,0-1.277-.437,2.086,2.086,0,0,0-1.234.375,2.546,2.546,0,0,0-.828.984V17h-1.445V8.547ZM224.8,17a3.036,3.036,0,0,1-.2-.891,3.225,3.225,0,0,1-2.406,1.047,2.984,2.984,0,0,1-2.051-.707,2.287,2.287,0,0,1-.8-1.793,2.39,2.39,0,0,1,1-2.051,4.733,4.733,0,0,1,2.824-.73h1.406v-.664A1.623,1.623,0,0,0,224.125,10a1.821,1.821,0,0,0-1.336-.449,2.107,2.107,0,0,0-1.3.391,1.151,1.151,0,0,0-.523.945h-1.453a2,2,0,0,1,.449-1.223,3.066,3.066,0,0,1,1.219-.934,4.1,4.1,0,0,1,1.691-.344,3.342,3.342,0,0,1,2.289.73,2.635,2.635,0,0,1,.859,2.012v3.891a4.757,4.757,0,0,0,.3,1.852V17Zm-2.4-1.1a2.54,2.54,0,0,0,1.289-.352,2.127,2.127,0,0,0,.883-.914V12.9h-1.133q-2.656,0-2.656,1.555a1.316,1.316,0,0,0,.453,1.063A1.742,1.742,0,0,0,222.406,15.9Zm10.8-1.141a1.064,1.064,0,0,0-.441-.91,4.249,4.249,0,0,0-1.539-.559,7.277,7.277,0,0,1-1.742-.562,2.479,2.479,0,0,1-.953-.781,1.869,1.869,0,0,1-.309-1.078,2.193,2.193,0,0,1,.879-1.758,3.432,3.432,0,0,1,2.246-.719,3.532,3.532,0,0,1,2.332.742,2.357,2.357,0,0,1,.895,1.9h-1.453a1.3,1.3,0,0,0-.5-1.023,1.888,1.888,0,0,0-1.27-.43,1.976,1.976,0,0,0-1.234.344,1.082,1.082,0,0,0-.445.9.877.877,0,0,0,.414.789,5.1,5.1,0,0,0,1.5.508,7.8,7.8,0,0,1,1.754.578,2.558,2.558,0,0,1,1,.809,1.988,1.988,0,0,1,.324,1.152,2.163,2.163,0,0,1-.906,1.816,3.8,3.8,0,0,1-2.352.684,4.257,4.257,0,0,1-1.8-.359,2.922,2.922,0,0,1-1.223-1,2.42,2.42,0,0,1-.441-1.395h1.445a1.5,1.5,0,0,0,.582,1.152,2.258,2.258,0,0,0,1.434.426,2.331,2.331,0,0,0,1.316-.332A1.02,1.02,0,0,0,233.211,14.758Zm6.664-2.3a12.084,12.084,0,0,1-.457,3.34,9.876,9.876,0,0,1-1.4,2.949,6.127,6.127,0,0,1-1.973,1.922l-.3-.883a6.281,6.281,0,0,0,1.934-2.863,12.387,12.387,0,0,0,.746-4.309v-.25a12.861,12.861,0,0,0-.344-3.051,10.3,10.3,0,0,0-.957-2.527,5.838,5.838,0,0,0-1.379-1.742l.3-.883a6.1,6.1,0,0,1,1.965,1.906,9.9,9.9,0,0,1,1.4,2.945A12.364,12.364,0,0,1,239.875,12.461Zm7.633-2.891a3.073,3.073,0,0,1,2.5-1.18q2.68,0,2.7,3.023V17h-1.445V11.406a1.946,1.946,0,0,0-.418-1.352,1.675,1.675,0,0,0-1.277-.437,2.086,2.086,0,0,0-1.234.375,2.546,2.546,0,0,0-.828.984V17h-1.445V5h1.445Zm6.984,3.125a4.993,4.993,0,0,1,.488-2.234A3.642,3.642,0,0,1,256.34,8.93a3.7,3.7,0,0,1,1.988-.539,3.565,3.565,0,0,1,2.793,1.2,4.6,4.6,0,0,1,1.066,3.18v.1a5.036,5.036,0,0,1-.473,2.215,3.589,3.589,0,0,1-1.352,1.527,3.743,3.743,0,0,1-2.02.547,3.556,3.556,0,0,1-2.785-1.2,4.575,4.575,0,0,1-1.066-3.164Zm1.453.172a3.616,3.616,0,0,0,.652,2.258,2.211,2.211,0,0,0,3.5-.012,3.955,3.955,0,0,0,.648-2.418,3.61,3.61,0,0,0-.66-2.254,2.1,2.1,0,0,0-1.754-.863,2.075,2.075,0,0,0-1.727.852A3.925,3.925,0,0,0,255.945,12.867Zm9.547-4.32v9.43q0,2.438-2.211,2.438a2.7,2.7,0,0,1-.883-.14V19.125a2.794,2.794,0,0,0,.656.063.982.982,0,0,0,.738-.262,1.3,1.3,0,0,0,.254-.911V8.547ZM263.9,6.3a.867.867,0,0,1,.215-.59.79.79,0,0,1,.629-.246.819.819,0,0,1,.641.242.854.854,0,0,1,.219.594.826.826,0,0,1-.219.586.834.834,0,0,1-.641.234.808.808,0,0,1-.633-.234A.843.843,0,0,1,263.9,6.3ZM273.039,17a3.036,3.036,0,0,1-.2-.891,3.225,3.225,0,0,1-2.406,1.047,2.984,2.984,0,0,1-2.051-.707,2.288,2.288,0,0,1-.8-1.793,2.39,2.39,0,0,1,1-2.051,4.733,4.733,0,0,1,2.824-.73h1.406v-.664A1.623,1.623,0,0,0,272.359,10a1.821,1.821,0,0,0-1.336-.449,2.108,2.108,0,0,0-1.3.391,1.151,1.151,0,0,0-.523.945H267.75a2,2,0,0,1,.449-1.223,3.066,3.066,0,0,1,1.219-.934,4.1,4.1,0,0,1,1.691-.344,3.342,3.342,0,0,1,2.289.73,2.635,2.635,0,0,1,.859,2.012v3.891a4.757,4.757,0,0,0,.3,1.852V17Zm-2.4-1.1a2.54,2.54,0,0,0,1.289-.352,2.126,2.126,0,0,0,.883-.914V12.9H271.68q-2.656,0-2.656,1.555a1.316,1.316,0,0,0,.453,1.063A1.742,1.742,0,0,0,270.641,15.9Zm10.8-1.141a1.064,1.064,0,0,0-.441-.91,4.249,4.249,0,0,0-1.539-.559,7.276,7.276,0,0,1-1.742-.562,2.478,2.478,0,0,1-.953-.781,1.869,1.869,0,0,1-.309-1.078,2.193,2.193,0,0,1,.879-1.758,3.432,3.432,0,0,1,2.246-.719,3.532,3.532,0,0,1,2.332.742,2.357,2.357,0,0,1,.895,1.9h-1.453a1.3,1.3,0,0,0-.5-1.023,1.888,1.888,0,0,0-1.27-.43,1.976,1.976,0,0,0-1.234.344,1.082,1.082,0,0,0-.445.9.877.877,0,0,0,.414.789,5.1,5.1,0,0,0,1.5.508,7.8,7.8,0,0,1,1.754.578,2.559,2.559,0,0,1,1,.809,1.988,1.988,0,0,1,.324,1.152,2.163,2.163,0,0,1-.906,1.816,3.8,3.8,0,0,1-2.352.684,4.257,4.257,0,0,1-1.8-.359,2.922,2.922,0,0,1-1.223-1,2.42,2.42,0,0,1-.441-1.395h1.445a1.5,1.5,0,0,0,.582,1.152,2.258,2.258,0,0,0,1.434.426,2.331,2.331,0,0,0,1.316-.332A1.02,1.02,0,0,0,281.445,14.758Zm3.359,1.484a.905.905,0,0,1,.223-.625.848.848,0,0,1,.668-.25.874.874,0,0,1,.676.25.887.887,0,0,1,.23.625.839.839,0,0,1-.23.6.89.89,0,0,1-.676.242.8.8,0,0,1-.891-.844Z" transform="translate(404.595 2493)" fill="#12263f"/>
    <g id="Grupo_80222" data-name="Grupo 80222" transform="translate(107.423 2153.413)">
      <g id="Grupo_80195" data-name="Grupo 80195">
        <g id="Grupo_80183" data-name="Grupo 80183">
          <g id="Grupo_80172" data-name="Grupo 80172">
            <path id="Trazado_113601" data-name="Trazado 113601" d="M235.776,334.792v-.1H184.709v.01a5.764,5.764,0,0,0-5.54,5.807,5.605,5.605,0,0,0,5.657,5.683c.392,0,.815.028,1.2.013h49.64c-2.606-.54-3.642-2.885-3.642-5.7C232.026,337.656,233.118,335.291,235.776,334.792Z" fill="#fff"/>
          </g>
          <g id="Grupo_80182" data-name="Grupo 80182">
            <g id="Grupo_80181" data-name="Grupo 80181" clip-path="url(#clip-path)">
              <g id="Grupo_80180" data-name="Grupo 80180">
                <g id="Grupo_80173" data-name="Grupo 80173">
                  <rect id="Rectángulo_33795" data-name="Rectángulo 33795" width="57.318" height="0.559" transform="translate(178.938 336.135)" fill="#ccd4d2"/>
                </g>
                <g id="Grupo_80174" data-name="Grupo 80174">
                  <rect id="Rectángulo_33796" data-name="Rectángulo 33796" width="57.318" height="0.557" transform="translate(178.938 338.955)" fill="#ccd4d2"/>
                </g>
                <g id="Grupo_80175" data-name="Grupo 80175">
                  <rect id="Rectángulo_33797" data-name="Rectángulo 33797" width="57.318" height="0.559" transform="translate(178.938 341.774)" fill="#ccd4d2"/>
                </g>
                <g id="Grupo_80176" data-name="Grupo 80176">
                  <rect id="Rectángulo_33798" data-name="Rectángulo 33798" width="57.318" height="0.559" transform="translate(178.938 343.184)" fill="#ccd4d2"/>
                </g>
                <g id="Grupo_80177" data-name="Grupo 80177">
                  <rect id="Rectángulo_33799" data-name="Rectángulo 33799" width="57.318" height="0.559" transform="translate(178.938 344.593)" fill="#ccd4d2"/>
                </g>
                <g id="Grupo_80178" data-name="Grupo 80178">
                  <rect id="Rectángulo_33800" data-name="Rectángulo 33800" width="57.318" height="0.558" transform="translate(178.938 340.364)" fill="#ccd4d2"/>
                </g>
                <g id="Grupo_80179" data-name="Grupo 80179">
                  <rect id="Rectángulo_33801" data-name="Rectángulo 33801" width="57.318" height="0.557" transform="translate(178.938 337.546)" fill="#ccd4d2"/>
                </g>
              </g>
            </g>
          </g>
        </g>
        <g id="Grupo_80185" data-name="Grupo 80185">
          <g id="Grupo_80184" data-name="Grupo 80184">
            <path id="Trazado_113603" data-name="Trazado 113603" d="M233.04,267.094H184.8c-.069,0-.137.007-.2.011V335.88c.068.005.136.012.2.012H233.04a4.122,4.122,0,0,0,4.122-4.1V271.189A4.12,4.12,0,0,0,233.04,267.094Z" fill="#ffc23a"/>
          </g>
        </g>
        <g id="Grupo_80186" data-name="Grupo 80186">
          <path id="Trazado_113604" data-name="Trazado 113604" d="M185.127,346.194a1.935,1.935,0,0,1-.213-.029c.213.029-.111-2.354-.111-5.243s.5-5.054.153-5.083c-.051,0,.292.027.344.029l-.19-57.252.172-.008v-11.5c-.11,0-.216-.016-.326-.016-3.214,0-6.229,1.909-6.72,4.651a18.1,18.1,0,0,0-.109,2.479s-.145,66.569-.145,66.846a5.776,5.776,0,0,0,.064.814v.176h.031a6.8,6.8,0,0,0,6.879,5.331c.051,0,.1-.007.154-.009Z" fill="#f9a431"/>
        </g>
        <g id="Grupo_80187" data-name="Grupo 80187">
          <path id="Trazado_113605" data-name="Trazado 113605" d="M236.132,335.633s-4.488,5.985.272,10.638H181.311l-.275-11.376Z" fill="#e7e5e5"/>
        </g>
        <g id="Grupo_80188" data-name="Grupo 80188">
          <path id="Trazado_113606" data-name="Trazado 113606" d="M181.036,341.957c.735-.557,9.294-7.032,54.006-4.425A3.389,3.389,0,0,1,236.2,335.6l-54.416-1.248Z" fill="#cececd"/>
        </g>
        <g id="Grupo_80189" data-name="Grupo 80189">
          <path id="Trazado_113607" data-name="Trazado 113607" d="M181.771,339.5v-1.479c0-2.629,2.025-2.418,2.025-2.418h53.439V332.58H183.243a3.505,3.505,0,0,0-2.467.846h0l0,0c-.048.044-.094.09-.137.136l-.013.013a1.061,1.061,0,0,0-.073.078c-1.021,1.086-4.975,6.015-.426,12.987a3.275,3.275,0,0,0,3.119,1.676h53.992V345.3H183.8s-2.025.213-2.025-2.416V339.5Z" fill="#ffc23a"/>
        </g>
        <g id="Grupo_80190" data-name="Grupo 80190">
          <path id="Trazado_113608" data-name="Trazado 113608" d="M183.8,345.3s-2.025.213-2.025-2.416v-4.864c0-2.629,2.025-2.418,2.025-2.418h9.311V332.58h-9.864a3.505,3.505,0,0,0-2.467.846h0l0,0c-.048.044-.094.09-.137.136l-.013.013a1.061,1.061,0,0,0-.073.078c-1.021,1.086-4.975,6.015-.426,12.987a3.275,3.275,0,0,0,3.119,1.676h9.864V345.3Z" fill="#f9a431"/>
        </g>
        <g id="Grupo_80191" data-name="Grupo 80191">
          <path id="Trazado_113609" data-name="Trazado 113609" d="M199.849,340.706a19.784,19.784,0,0,0-4.518-.211,7.165,7.165,0,0,1,2.711,6.116l2.174-2.873,3,2.065S202.271,341.611,199.849,340.706Z" fill="#ea5645"/>
        </g>
        <g id="Grupo_80192" data-name="Grupo 80192">
          <rect id="Rectángulo_33802" data-name="Rectángulo 33802" width="8.305" height="65.486" transform="translate(184.803 267.094)" fill="#f9a431"/>
        </g>
        <g id="Grupo_80193" data-name="Grupo 80193">
          <path id="Trazado_113610" data-name="Trazado 113610" d="M225.96,281.421a1.926,1.926,0,0,1-1.632,2.122H192.909a1.925,1.925,0,0,1-1.633-2.122v-.529a1.924,1.924,0,0,1,1.633-2.122h31.419a1.925,1.925,0,0,1,1.632,2.122Z" fill="#ea5645"/>
        </g>
        <g id="Grupo_80194" data-name="Grupo 80194">
          <path id="Trazado_113611" data-name="Trazado 113611" d="M221.987,287.787c0,1.171-.534,2.122-1.195,2.122H197.776c-.661,0-1.2-.951-1.2-2.122v-.532c0-1.171.534-2.122,1.2-2.122h23.016c.661,0,1.195.951,1.195,2.122Z" fill="#ea5645"/>
        </g>
      </g>
      <g id="Grupo_80207" data-name="Grupo 80207">
        <g id="Grupo_80196" data-name="Grupo 80196">
          <path id="Trazado_113612" data-name="Trazado 113612" d="M260.714,350.553v-.1H209.646v.009a5.766,5.766,0,0,0-5.54,5.808,5.6,5.6,0,0,0,5.657,5.68c.391,0,.814.029,1.2.016H260.6c-2.605-.541-3.641-2.885-3.641-5.7C256.963,353.417,258.056,351.05,260.714,350.553Z" fill="#fff"/>
        </g>
        <g id="Grupo_80206" data-name="Grupo 80206">
          <g id="Grupo_80205" data-name="Grupo 80205" clip-path="url(#clip-path-2)">
            <g id="Grupo_80204" data-name="Grupo 80204">
              <g id="Grupo_80197" data-name="Grupo 80197">
                <rect id="Rectángulo_33803" data-name="Rectángulo 33803" width="57.318" height="0.56" transform="translate(203.876 351.896)" fill="#ccd4d2"/>
              </g>
              <g id="Grupo_80198" data-name="Grupo 80198">
                <rect id="Rectángulo_33804" data-name="Rectángulo 33804" width="57.318" height="0.557" transform="translate(203.876 354.717)" fill="#ccd4d2"/>
              </g>
              <g id="Grupo_80199" data-name="Grupo 80199">
                <rect id="Rectángulo_33805" data-name="Rectángulo 33805" width="57.318" height="0.558" transform="translate(203.876 357.535)" fill="#ccd4d2"/>
              </g>
              <g id="Grupo_80200" data-name="Grupo 80200">
                <rect id="Rectángulo_33806" data-name="Rectángulo 33806" width="57.318" height="0.56" transform="translate(203.876 358.944)" fill="#ccd4d2"/>
              </g>
              <g id="Grupo_80201" data-name="Grupo 80201">
                <rect id="Rectángulo_33807" data-name="Rectángulo 33807" width="57.318" height="0.559" transform="translate(203.876 360.354)" fill="#ccd4d2"/>
              </g>
              <g id="Grupo_80202" data-name="Grupo 80202">
                <rect id="Rectángulo_33808" data-name="Rectángulo 33808" width="57.318" height="0.557" transform="translate(203.876 356.126)" fill="#ccd4d2"/>
              </g>
              <g id="Grupo_80203" data-name="Grupo 80203">
                <rect id="Rectángulo_33809" data-name="Rectángulo 33809" width="57.318" height="0.559" transform="translate(203.876 353.306)" fill="#ccd4d2"/>
              </g>
            </g>
          </g>
        </g>
      </g>
      <g id="Grupo_80209" data-name="Grupo 80209">
        <g id="Grupo_80208" data-name="Grupo 80208">
          <path id="Trazado_113614" data-name="Trazado 113614" d="M257.977,282.855H209.74c-.069,0-.137.007-.205.009v68.778c.068,0,.136.008.205.008h48.237a4.118,4.118,0,0,0,4.122-4.092V286.95A4.12,4.12,0,0,0,257.977,282.855Z" fill="#ea5645"/>
        </g>
      </g>
      <g id="Grupo_80210" data-name="Grupo 80210">
        <path id="Trazado_113615" data-name="Trazado 113615" d="M210.064,361.956a1.807,1.807,0,0,1-.213-.03c.213.03-.111-2.354-.111-5.243s.5-5.055.153-5.082c-.051-.005.291.024.344.027l-.19-57.251c.057,0,.114-.007.172-.007v-11.5c-.11,0-.216-.014-.326-.014-3.214,0-6.229,1.91-6.72,4.65a18.091,18.091,0,0,0-.109,2.477s-.145,66.573-.145,66.85a5.814,5.814,0,0,0,.064.814v.176h.031a6.8,6.8,0,0,0,6.879,5.327c.051,0,.1,0,.154-.006Z" fill="#d13431"/>
      </g>
      <g id="Grupo_80211" data-name="Grupo 80211">
        <path id="Trazado_113616" data-name="Trazado 113616" d="M261.068,351.394s-4.487,5.986.274,10.637H206.248l-.276-11.375Z" fill="#e7e5e5"/>
      </g>
      <g id="Grupo_80212" data-name="Grupo 80212">
        <path id="Trazado_113617" data-name="Trazado 113617" d="M205.972,357.717c.736-.555,9.295-7.032,54.007-4.426a3.39,3.39,0,0,1,1.159-1.929l-54.416-1.247Z" fill="#cececd"/>
      </g>
      <g id="Grupo_80213" data-name="Grupo 80213">
        <path id="Trazado_113618" data-name="Trazado 113618" d="M206.708,355.26v-1.481c0-2.631,2.024-2.417,2.024-2.417h53.44v-3.02H208.18a3.505,3.505,0,0,0-2.467.846h0l0,0c-.048.043-.094.089-.138.132l-.012.017a.9.9,0,0,0-.074.077c-1.02,1.087-4.974,6.016-.425,12.984a3.273,3.273,0,0,0,3.119,1.68h53.992v-3.02h-53.44s-2.024.213-2.024-2.415V355.26Z" fill="#ea5645"/>
      </g>
      <g id="Grupo_80214" data-name="Grupo 80214">
        <path id="Trazado_113619" data-name="Trazado 113619" d="M208.732,361.06s-2.024.213-2.024-2.415v-4.866c0-2.631,2.024-2.417,2.024-2.417h9.312v-3.02H208.18a3.505,3.505,0,0,0-2.467.846h0l0,0c-.048.043-.094.089-.138.132l-.012.017a.9.9,0,0,0-.074.077c-1.02,1.087-4.974,6.016-.425,12.984a3.273,3.273,0,0,0,3.119,1.68h9.864v-3.02Z" fill="#d13431"/>
      </g>
      <g id="Grupo_80215" data-name="Grupo 80215">
        <path id="Trazado_113620" data-name="Trazado 113620" d="M224.786,356.468a19.771,19.771,0,0,0-4.517-.213,7.166,7.166,0,0,1,2.71,6.118l2.174-2.874,3,2.066S227.208,357.373,224.786,356.468Z" fill="#ffc23a"/>
      </g>
      <g id="Grupo_80216" data-name="Grupo 80216">
        <rect id="Rectángulo_33810" data-name="Rectángulo 33810" width="8.305" height="65.486" transform="translate(209.74 282.855)" fill="#d13431"/>
      </g>
      <g id="Grupo_80218" data-name="Grupo 80218">
        <g id="Grupo_80217" data-name="Grupo 80217">
          <path id="Trazado_113621" data-name="Trazado 113621" d="M228.8,315.1h-7.355l-1.268,6.739h-6.16l7.572-31.342H228.8l7.571,31.342h-6.3Zm-1.051-5.382-2.644-13.838-2.647,13.838Z" fill="#ffc23a"/>
        </g>
      </g>
      <g id="Grupo_80219" data-name="Grupo 80219">
        <rect id="Rectángulo_33811" data-name="Rectángulo 33811" width="24.203" height="37.781" transform="translate(231.426 306.231)" fill="#f9a431"/>
      </g>
      <g id="Grupo_80221" data-name="Grupo 80221">
        <g id="Grupo_80220" data-name="Grupo 80220">
          <path id="Trazado_113622" data-name="Trazado 113622" d="M251.979,329.728c0,5.862-3.8,7.494-8.976,7.494h-6.628V311.514H242.2c5.528,0,8.917,1.742,8.917,6.565a5.337,5.337,0,0,1-3.777,5.528C249.63,324.163,251.979,325.573,251.979,329.728Zm-10.73-13.912v5.973h1.814c2.02,0,3.091-.965,3.091-3.116s-1.13-2.857-3.478-2.857Zm5.707,13.579c0-2.6-1.457-3.563-3.567-3.563h-2.14v6.975h1.785C245.322,332.807,246.956,332.214,246.956,329.395Z" fill="#22b1b6"/>
        </g>
      </g>
    </g>
    <g id="Grupo_82679" data-name="Grupo 82679" transform="translate(9161 12312)">
      <g id="Rectángulo_34150" data-name="Rectángulo 34150" transform="translate(-8771 -9881)" fill="#fff" stroke="#ffbfc1" stroke-width="2">
        <rect width="340" height="54" rx="27" stroke="none"/>
        <rect x="1" y="1" width="338" height="52" rx="26" fill="none"/>
      </g>
      <path id="Trazado_115819" data-name="Trazado 115819" d="M2.6,17H.313L2.281,5.625H4.57Zm9.453-8.461-.187,1a3.042,3.042,0,0,1,2.461-1.148,2.028,2.028,0,0,1,1.766.875,3.526,3.526,0,0,1,.414,2.359L15.617,17h-2.2l.906-5.4a2.528,2.528,0,0,0,.016-.555.9.9,0,0,0-1-.82,1.9,1.9,0,0,0-1.555.8L10.727,17h-2.2L9.992,8.547Zm9.3,8.617a3.677,3.677,0,0,1-1.965-.543,3.292,3.292,0,0,1-1.277-1.469,4.093,4.093,0,0,1-.328-2.059l.023-.312a5.465,5.465,0,0,1,.719-2.266,4.341,4.341,0,0,1,1.547-1.59,3.827,3.827,0,0,1,2.094-.527,2.924,2.924,0,0,1,2.473,1.2,4.117,4.117,0,0,1,.637,2.962l-.125.962h-5.18a1.814,1.814,0,0,0,.4,1.313,1.521,1.521,0,0,0,1.172.508,2.7,2.7,0,0,0,2.109-.937l1.008,1.25a3.135,3.135,0,0,1-1.375,1.121A4.5,4.5,0,0,1,21.359,17.156Zm.7-6.945a1.565,1.565,0,0,0-1.082.383,3.363,3.363,0,0,0-.848,1.383h3.031l.047-.2a2.071,2.071,0,0,0,.008-.594,1.134,1.134,0,0,0-.383-.707A1.2,1.2,0,0,0,22.063,10.211Zm7.766,6.945a3.677,3.677,0,0,1-1.965-.543,3.292,3.292,0,0,1-1.277-1.469,4.093,4.093,0,0,1-.328-2.059l.023-.312A5.465,5.465,0,0,1,27,10.508a4.341,4.341,0,0,1,1.547-1.59,3.827,3.827,0,0,1,2.094-.527,2.924,2.924,0,0,1,2.473,1.2,4.117,4.117,0,0,1,.637,2.962l-.125.962h-5.18a1.814,1.814,0,0,0,.4,1.313,1.521,1.521,0,0,0,1.172.508,2.7,2.7,0,0,0,2.109-.937l1.008,1.25a3.135,3.135,0,0,1-1.375,1.121A4.5,4.5,0,0,1,29.828,17.156Zm.7-6.945a1.565,1.565,0,0,0-1.082.383,3.363,3.363,0,0,0-.848,1.383h3.031l.047-.2a2.071,2.071,0,0,0,.008-.594,1.134,1.134,0,0,0-.383-.707A1.2,1.2,0,0,0,30.531,10.211Zm7.945-1.828a2.4,2.4,0,0,1,1.906.945L41.211,5h2.211L41.344,17H39.375l.125-.906a2.736,2.736,0,0,1-2.2,1.07,2.433,2.433,0,0,1-1.383-.414A2.607,2.607,0,0,1,35,15.582a4.7,4.7,0,0,1-.355-1.7,6.4,6.4,0,0,1,.023-.953l.047-.352a6.767,6.767,0,0,1,.723-2.281,3.766,3.766,0,0,1,1.313-1.461A3.094,3.094,0,0,1,38.477,8.383Zm-1.6,4.547a6.327,6.327,0,0,0-.039,1q.078,1.375,1.109,1.4a1.885,1.885,0,0,0,1.617-.875l.6-3.359a1.248,1.248,0,0,0-1.219-.875,1.606,1.606,0,0,0-1.34.621A4.176,4.176,0,0,0,36.875,12.93ZM51.938,17a2.281,2.281,0,0,1-.086-.766,2.863,2.863,0,0,1-2.156.922,2.594,2.594,0,0,1-1.84-.723,2.186,2.186,0,0,1-.684-1.746,2.527,2.527,0,0,1,1.16-2.121,5.266,5.266,0,0,1,2.965-.738l1.031.016.109-.508a1.764,1.764,0,0,0,.023-.492.846.846,0,0,0-.277-.574.955.955,0,0,0-.629-.215,1.345,1.345,0,0,0-.875.254,1.231,1.231,0,0,0-.461.777l-2.211.008a2.457,2.457,0,0,1,1.113-1.965,4.312,4.312,0,0,1,2.613-.738,3.117,3.117,0,0,1,2.25.855,2.5,2.5,0,0,1,.68,2.121l-.648,4.047-.039.5a2.412,2.412,0,0,0,.133.938L54.1,17Zm-1.7-1.555a2.017,2.017,0,0,0,1.664-.828l.273-1.461-.766-.008a2.139,2.139,0,0,0-1.758.742,1.292,1.292,0,0,0-.242.633.75.75,0,0,0,.176.668A.891.891,0,0,0,50.242,15.445ZM67.516,12.8A6.061,6.061,0,0,1,66.3,16a3.033,3.033,0,0,1-2.547,1.164,2.357,2.357,0,0,1-2.031-1.078L61.4,17H59.391L61.469,5H63.68l-.852,4.32a2.634,2.634,0,0,1,2.063-.93,2.385,2.385,0,0,1,1.926.879,3.89,3.89,0,0,1,.746,2.387A9.133,9.133,0,0,1,67.516,12.8Zm-2.187-.165a6.554,6.554,0,0,0,.047-1.034q-.086-1.364-1.125-1.387a1.833,1.833,0,0,0-1.617.885l-.609,3.37a1.258,1.258,0,0,0,1.266.878q1.625.047,1.992-2.367Zm7.711-4.242a3.39,3.39,0,0,1,1.926.574A3.234,3.234,0,0,1,76.152,10.5a4.762,4.762,0,0,1,.27,2.176,5.143,5.143,0,0,1-1.4,3.262A3.96,3.96,0,0,1,72,17.156a3.38,3.38,0,0,1-1.906-.566,3.222,3.222,0,0,1-1.187-1.527,4.657,4.657,0,0,1-.273-2.156,5.3,5.3,0,0,1,1.422-3.328A3.878,3.878,0,0,1,73.039,8.391Zm-2.227,5.315a1.95,1.95,0,0,0,.352,1.182,1.168,1.168,0,0,0,.945.449A1.712,1.712,0,0,0,73.7,14.4a4.647,4.647,0,0,0,.539-2.531,2.122,2.122,0,0,0-.363-1.2,1.149,1.149,0,0,0-.949-.464,1.715,1.715,0,0,0-1.574.924A4.6,4.6,0,0,0,70.813,13.706ZM81.891,8.391a3.39,3.39,0,0,1,1.926.574A3.234,3.234,0,0,1,85,10.5a4.762,4.762,0,0,1,.27,2.176,5.143,5.143,0,0,1-1.4,3.262,3.96,3.96,0,0,1-3.02,1.215,3.38,3.38,0,0,1-1.906-.566,3.222,3.222,0,0,1-1.187-1.527,4.657,4.657,0,0,1-.273-2.156,5.3,5.3,0,0,1,1.422-3.328A3.878,3.878,0,0,1,81.891,8.391Zm-2.227,5.315a1.95,1.95,0,0,0,.352,1.182,1.168,1.168,0,0,0,.945.449,1.712,1.712,0,0,0,1.594-.932,4.647,4.647,0,0,0,.539-2.531,2.122,2.122,0,0,0-.363-1.2,1.149,1.149,0,0,0-.949-.464,1.715,1.715,0,0,0-1.574.924A4.6,4.6,0,0,0,79.664,13.706Zm9.9-.073-1.023.891L88.109,17h-2.2L87.984,5H90.2l-1.141,6.516.43-.461,2.508-2.508H94.82l-3.7,3.633L93.477,17H91.063ZM103.109,17a2.281,2.281,0,0,1-.086-.766,2.863,2.863,0,0,1-2.156.922,2.594,2.594,0,0,1-1.84-.723,2.186,2.186,0,0,1-.684-1.746,2.527,2.527,0,0,1,1.16-2.121,5.266,5.266,0,0,1,2.965-.738l1.031.016.109-.508a1.764,1.764,0,0,0,.023-.492.846.846,0,0,0-.277-.574.955.955,0,0,0-.629-.215,1.345,1.345,0,0,0-.875.254,1.231,1.231,0,0,0-.461.777l-2.211.008a2.457,2.457,0,0,1,1.113-1.965,4.312,4.312,0,0,1,2.613-.738,3.117,3.117,0,0,1,2.25.855,2.5,2.5,0,0,1,.68,2.121l-.648,4.047-.039.5a2.412,2.412,0,0,0,.133.938l-.008.148Zm-1.7-1.555a2.017,2.017,0,0,0,1.664-.828l.273-1.461-.766-.008a2.139,2.139,0,0,0-1.758.742,1.292,1.292,0,0,0-.242.633.75.75,0,0,0,.176.668A.891.891,0,0,0,101.414,15.445ZM110.1,8.539l-.187,1a3.042,3.042,0,0,1,2.461-1.148,2.028,2.028,0,0,1,1.766.875,3.526,3.526,0,0,1,.414,2.359L113.664,17h-2.2l.906-5.4a2.528,2.528,0,0,0,.016-.555.9.9,0,0,0-1-.82,1.9,1.9,0,0,0-1.555.8L108.773,17h-2.2l1.469-8.453Zm9.484-.156a2.4,2.4,0,0,1,1.906.945L122.32,5h2.211l-2.078,12h-1.969l.125-.906a2.736,2.736,0,0,1-2.2,1.07,2.433,2.433,0,0,1-1.383-.414,2.607,2.607,0,0,1-.918-1.168,4.7,4.7,0,0,1-.355-1.7,6.4,6.4,0,0,1,.023-.953l.047-.352a6.767,6.767,0,0,1,.723-2.281,3.766,3.766,0,0,1,1.313-1.461A3.094,3.094,0,0,1,119.586,8.383Zm-1.6,4.547a6.327,6.327,0,0,0-.039,1q.078,1.375,1.109,1.4a1.885,1.885,0,0,0,1.617-.875l.6-3.359a1.248,1.248,0,0,0-1.219-.875,1.606,1.606,0,0,0-1.34.621A4.176,4.176,0,0,0,117.984,12.93Zm15.07,1.688q.125-.625-.867-.906l-.711-.18q-2.523-.7-2.453-2.453a2.428,2.428,0,0,1,1.059-1.949,3.942,3.942,0,0,1,2.457-.738,3.536,3.536,0,0,1,2.313.758,2.5,2.5,0,0,1,.9,1.977l-2.187-.008a.963.963,0,0,0-1.078-1.1,1.552,1.552,0,0,0-.895.258,1.061,1.061,0,0,0-.465.7q-.117.625.945.883l.313.07a6.285,6.285,0,0,1,1.648.59,2.488,2.488,0,0,1,.879.824,2.04,2.04,0,0,1,.285,1.18,2.251,2.251,0,0,1-.52,1.406,3.18,3.18,0,0,1-1.359.93,4.736,4.736,0,0,1-1.816.3,3.568,3.568,0,0,1-2.344-.809A2.607,2.607,0,0,1,128.2,14.3l2.078.016a1.142,1.142,0,0,0,1.3,1.227,1.845,1.845,0,0,0,1-.25A.987.987,0,0,0,133.055,14.617Zm7.992-6.227a3.39,3.39,0,0,1,1.926.574A3.234,3.234,0,0,1,144.16,10.5a4.761,4.761,0,0,1,.27,2.176,5.143,5.143,0,0,1-1.4,3.262,3.96,3.96,0,0,1-3.02,1.215,3.38,3.38,0,0,1-1.906-.566,3.222,3.222,0,0,1-1.187-1.527,4.657,4.657,0,0,1-.273-2.156,5.3,5.3,0,0,1,1.422-3.328A3.878,3.878,0,0,1,141.047,8.391Zm-2.227,5.315a1.951,1.951,0,0,0,.352,1.182,1.168,1.168,0,0,0,.945.449,1.712,1.712,0,0,0,1.594-.932,4.646,4.646,0,0,0,.539-2.531,2.122,2.122,0,0,0-.363-1.2,1.149,1.149,0,0,0-.949-.464,1.715,1.715,0,0,0-1.574.924A4.6,4.6,0,0,0,138.82,13.706Zm9.758-5.167-.18.961a3.112,3.112,0,0,1,2.477-1.109,2.379,2.379,0,0,1,1.3.359,1.679,1.679,0,0,1,.7.93,3.255,3.255,0,0,1,2.625-1.289,2.126,2.126,0,0,1,1.754.8,3.271,3.271,0,0,1,.5,2.234l-.016.2-.9,5.383h-2.211l.9-5.4a3.909,3.909,0,0,0,.023-.54.837.837,0,0,0-.937-.845,1.86,1.86,0,0,0-1.555.97l-.023.18L152.039,17h-2.2l.9-5.383a3.9,3.9,0,0,0,.023-.539.836.836,0,0,0-.93-.852,1.867,1.867,0,0,0-1.508.789L147.266,17h-2.2l1.461-8.453Zm14.016,8.617a3.677,3.677,0,0,1-1.965-.543,3.292,3.292,0,0,1-1.277-1.469,4.093,4.093,0,0,1-.328-2.059l.023-.312a5.465,5.465,0,0,1,.719-2.266,4.341,4.341,0,0,1,1.547-1.59,3.827,3.827,0,0,1,2.094-.527,2.924,2.924,0,0,1,2.473,1.2,4.117,4.117,0,0,1,.637,2.962l-.125.962h-5.18a1.814,1.814,0,0,0,.4,1.313,1.521,1.521,0,0,0,1.172.508,2.7,2.7,0,0,0,2.109-.937l1.008,1.25a3.135,3.135,0,0,1-1.375,1.121A4.5,4.5,0,0,1,162.594,17.156Zm.7-6.945a1.565,1.565,0,0,0-1.082.383,3.363,3.363,0,0,0-.848,1.383H164.4l.047-.2a2.071,2.071,0,0,0,.008-.594,1.134,1.134,0,0,0-.383-.707A1.2,1.2,0,0,0,163.3,10.211Zm12.594,4.406q.125-.625-.867-.906l-.711-.18q-2.523-.7-2.453-2.453a2.428,2.428,0,0,1,1.059-1.949,3.942,3.942,0,0,1,2.457-.738,3.536,3.536,0,0,1,2.313.758,2.5,2.5,0,0,1,.9,1.977l-2.187-.008a.963.963,0,0,0-1.078-1.1,1.552,1.552,0,0,0-.895.258,1.061,1.061,0,0,0-.465.7q-.117.625.945.883l.313.07a6.285,6.285,0,0,1,1.648.59,2.488,2.488,0,0,1,.879.824,2.04,2.04,0,0,1,.285,1.18,2.251,2.251,0,0,1-.52,1.406,3.18,3.18,0,0,1-1.359.93,4.736,4.736,0,0,1-1.816.3,3.568,3.568,0,0,1-2.344-.809,2.607,2.607,0,0,1-.953-2.051l2.078.016a1.142,1.142,0,0,0,1.3,1.227,1.845,1.845,0,0,0,1-.25A.987.987,0,0,0,175.891,14.617Zm6.516-5.133A2.946,2.946,0,0,1,184.7,8.391a2.143,2.143,0,0,1,1.848.9,3.548,3.548,0,0,1,.441,2.379L186.094,17h-2.2l.9-5.358a2.6,2.6,0,0,0,.016-.563.885.885,0,0,0-.984-.868,1.9,1.9,0,0,0-1.562.766L181.2,17h-2.2L181.07,5h2.211Zm9.422,7.672a3.677,3.677,0,0,1-1.965-.543,3.292,3.292,0,0,1-1.277-1.469,4.093,4.093,0,0,1-.328-2.059l.023-.312A5.465,5.465,0,0,1,189,10.508a4.341,4.341,0,0,1,1.547-1.59,3.827,3.827,0,0,1,2.094-.527,2.924,2.924,0,0,1,2.473,1.2,4.117,4.117,0,0,1,.637,2.962l-.125.962h-5.18a1.814,1.814,0,0,0,.4,1.313,1.521,1.521,0,0,0,1.172.508,2.7,2.7,0,0,0,2.109-.937l1.008,1.25a3.135,3.135,0,0,1-1.375,1.121A4.5,4.5,0,0,1,191.828,17.156Zm.7-6.945a1.565,1.565,0,0,0-1.082.383,3.363,3.363,0,0,0-.848,1.383h3.031l.047-.2a2.071,2.071,0,0,0,.008-.594,1.134,1.134,0,0,0-.383-.707A1.2,1.2,0,0,0,192.531,10.211Zm7.766,6.945a3.677,3.677,0,0,1-1.965-.543,3.292,3.292,0,0,1-1.277-1.469,4.093,4.093,0,0,1-.328-2.059l.023-.312a5.465,5.465,0,0,1,.719-2.266,4.341,4.341,0,0,1,1.547-1.59,3.827,3.827,0,0,1,2.094-.527,2.924,2.924,0,0,1,2.473,1.2,4.117,4.117,0,0,1,.637,2.962l-.125.962h-5.18a1.814,1.814,0,0,0,.4,1.313,1.521,1.521,0,0,0,1.172.508,2.7,2.7,0,0,0,2.109-.937l1.008,1.25a3.135,3.135,0,0,1-1.375,1.121A4.5,4.5,0,0,1,200.3,17.156Zm.7-6.945a1.565,1.565,0,0,0-1.082.383,3.363,3.363,0,0,0-.848,1.383H202.1l.047-.2a2.071,2.071,0,0,0,.008-.594,1.134,1.134,0,0,0-.383-.707A1.2,1.2,0,0,0,201,10.211Zm8.219-3.742-.367,2.078h1.406l-.289,1.656h-1.406l-.719,4.234a1.077,1.077,0,0,0,.063.609q.109.211.531.227.125.008.672-.039l-.156,1.727a3.706,3.706,0,0,1-1.266.18,1.985,1.985,0,0,1-1.617-.68,2.456,2.456,0,0,1-.437-1.8l.727-4.461h-1.2l.289-1.656h1.2l.359-2.078Zm5.75,8.148q.125-.625-.867-.906l-.711-.18q-2.523-.7-2.453-2.453A2.428,2.428,0,0,1,212,9.129a3.942,3.942,0,0,1,2.457-.738,3.536,3.536,0,0,1,2.313.758,2.5,2.5,0,0,1,.9,1.977l-2.187-.008a.963.963,0,0,0-1.078-1.1,1.552,1.552,0,0,0-.895.258,1.061,1.061,0,0,0-.465.7q-.117.625.945.883l.313.07a6.285,6.285,0,0,1,1.648.59,2.488,2.488,0,0,1,.879.824,2.04,2.04,0,0,1,.285,1.18,2.251,2.251,0,0,1-.52,1.406,3.18,3.18,0,0,1-1.359.93,4.736,4.736,0,0,1-1.816.3,3.568,3.568,0,0,1-2.344-.809,2.607,2.607,0,0,1-.953-2.051l2.078.016a1.142,1.142,0,0,0,1.3,1.227,1.845,1.845,0,0,0,1-.25A.987.987,0,0,0,214.969,14.617Zm4.7.055a1.22,1.22,0,0,1,.895.324,1.111,1.111,0,0,1,.371.855,1.151,1.151,0,0,1-.344.879,1.323,1.323,0,0,1-1.766.051,1.149,1.149,0,0,1-.375-.852,1.161,1.161,0,0,1,.336-.883A1.238,1.238,0,0,1,219.664,14.672Z" transform="translate(-8746 -9867)" fill="#ff5f65"/>
      <g id="Grupo_82659" data-name="Grupo 82659" transform="translate(-120 153)">
        <circle id="Elipse_4711" data-name="Elipse 4711" cx="15" cy="15" r="15" transform="translate(-8361 -10022)" fill="#ff5f65"/>
        <g id="herramienta-de-audio-con-altavoz" transform="translate(-8355.001 -10023.359)">
          <path id="Trazado_115694" data-name="Trazado 115694" d="M9.006,22.326a.817.817,0,0,1-1.339.629L3.2,19.252H.817A.817.817,0,0,1,0,18.435V15.178a.818.818,0,0,1,.817-.818H3.2l4.469-3.7a.818.818,0,0,1,1.339.63V22.326Zm3.142-1.277-.059,0a.817.817,0,0,1-.578-.239L11.4,20.7a.817.817,0,0,1-.079-1.065,4.753,4.753,0,0,0-.126-5.825.817.817,0,0,1,.056-1.093l.109-.109a.8.8,0,0,1,.619-.238.819.819,0,0,1,.592.3,6.547,6.547,0,0,1,.17,8.053A.818.818,0,0,1,12.147,21.049Zm3.38,2.526a.818.818,0,0,1-.59.289H14.9a.817.817,0,0,1-.578-.239l-.107-.107a.818.818,0,0,1-.048-1.1,8.711,8.711,0,0,0-.144-11.382.818.818,0,0,1,.033-1.119l.107-.107a.8.8,0,0,1,.6-.24.818.818,0,0,1,.587.274,10.5,10.5,0,0,1,.172,13.736Z" fill="#fff"/>
        </g>
      </g>
      <rect id="Rectángulo_34151" data-name="Rectángulo 34151" width="229" height="3" rx="1.5" transform="translate(-8746 -9840)" fill="#e1e8ff"/>
      <rect id="Rectángulo_34152" data-name="Rectángulo 34152" width="51" height="3" rx="1.5" transform="translate(-8746 -9840)" fill="#6b8dff"/>
      <circle id="Elipse_4776" data-name="Elipse 4776" cx="2.5" cy="2.5" r="2.5" transform="translate(-8698 -9841)" fill="#6b8dff"/>
    </g>
  </g>
</svg>
